<svg width="353" height="296" viewBox="0 0 353 296" fill="none" xmlns="http://www.w3.org/2000/svg">
<path d="M272.137 192.354C274.552 194.424 277.33 196.063 280.331 197.089C282.35 197.77 284.506 198.228 286.222 199.487C288.206 200.953 289.328 203.273 290.656 205.361C292.674 208.526 295.279 211.26 297.875 213.977C304.275 220.671 310.675 227.373 317.084 234.066C318.602 235.67 320.206 237.309 322.276 238.102C324.683 239.017 327.357 238.628 329.944 238.672C333.308 238.715 336.672 239.508 339.699 240.983C341.356 241.785 343.081 243.907 341.752 245.184L340.364 245.943C338.173 247.098 338.035 250.333 339.225 252.498C340.424 254.663 342.511 256.155 344.167 257.992C346.565 260.658 348.057 264.134 348.333 267.705C345.099 267.653 342.408 265.307 340.044 263.081C326.442 250.333 312.832 237.568 299.842 224.19C295.59 219.808 291.389 215.349 286.654 211.493C282.246 207.896 277.416 204.852 272.603 201.816C268.049 198.943 262.563 196.684 260.26 191.577C259.475 189.844 258.759 188.136 258.035 186.454C260.95 188.696 263.753 191.163 267.247 192.224C268.791 192.699 270.533 192.725 272.137 192.354Z" fill="#D4D7D9"/>
<path d="M271.887 207.189C272.793 207.732 273.724 208.293 274.345 209.147C275.562 210.838 275.208 213.141 275.053 215.219C274.475 223.12 277.649 230.762 280.754 238.05C283.652 244.83 286.568 251.601 289.638 258.294C292.2 263.866 295.917 264.366 299.842 268.507C300.661 269.378 301.093 271.086 299.989 271.569L297.789 271.551C296.745 271.75 296.297 273.104 296.616 274.122C296.927 275.148 297.729 275.924 298.393 276.761C301.912 281.134 301.895 287.284 301.722 292.899C301.688 293.813 301.584 294.883 300.808 295.383C299.937 295.952 298.703 295.383 298.16 294.503C297.608 293.615 297.548 292.528 297.427 291.493C296.797 285.973 294.115 280.927 291.605 275.967C281.694 256.466 273.517 236.084 267.178 215.15C266.798 213.891 266.324 212.502 265.16 211.881L263.503 211.303C261.977 210.691 261.08 209.156 260.183 207.776C254.059 198.348 243.657 192.768 235.083 185.505C231.693 182.633 228.597 179.424 225.768 176.009C232.97 177.095 240.163 178.087 246.779 180.416C251.1 191.741 261.235 200.763 271.887 207.189Z" fill="#D4D7D9"/>
<path d="M152.082 141.102C144.733 148.028 132.89 148.58 123.713 144.362C114.536 140.136 107.722 131.951 102.771 123.144C99.355 117.063 96.6639 110.577 92.8515 104.738C89.0391 98.8982 83.8465 93.6024 77.205 91.4633C72.1678 89.8417 66.639 90.1351 61.6795 88.2892C59.3937 87.444 57.3409 86.1845 55.4434 84.6837C57.2805 84.1576 59.135 83.7178 61.0412 83.5367C65.8541 83.0795 70.6844 84.287 75.1782 86.0811C86.4774 90.6094 96.1895 98.9845 102.313 109.507C106.79 117.193 109.576 126.197 116.243 132.088C126.559 141.205 144.526 138.799 152.703 127.733C156.636 122.411 158.05 115.675 157.352 109.119C158.861 113.941 159.784 118.952 159.491 123.972C159.128 130.338 156.722 136.729 152.082 141.102Z" fill="#D4D7D9"/>
<path d="M0 89.9275C16.7073 90.6261 33.7854 91.273 49.794 86.4428L50.7254 86.1495C51.2946 87.2621 51.8639 88.3835 52.4332 89.5048L53.0457 91.2558L52.5454 93.2397C51.8123 94.8871 50.9065 96.4569 49.8801 97.9404C48.4397 97.2849 46.801 97.0088 45.2225 96.7673C30.1455 94.4902 15.0684 92.2132 0 89.9275Z" fill="#D4D7D9"/>
<path d="M52.5455 93.2399L53.0458 91.256L52.4332 89.5051C51.864 88.3838 51.2947 87.2624 50.7254 86.1497C52.2952 85.6494 53.865 85.1406 55.4435 84.6834C57.341 86.1842 59.3939 87.4437 61.6796 88.289C66.6391 90.1348 72.1679 89.8415 77.2051 91.463C83.8466 93.6021 89.0392 98.898 92.8516 104.737C96.664 110.577 99.3551 117.063 102.771 123.144C107.722 131.95 114.536 140.136 123.713 144.362C132.89 148.58 144.733 148.028 152.082 141.102C156.722 136.729 159.129 130.337 159.491 123.972C159.784 118.952 158.861 113.941 157.352 109.119C156.593 102.029 153.367 95.1459 147.924 90.5055C141.179 84.7438 132.252 82.4064 123.773 79.8016C104.427 73.8415 84.2865 64.2673 75.2644 46.1455C71.3054 38.193 69.8391 29.1794 65.8111 21.2614C62.2834 14.318 56.8149 8.25435 54.8484 0.724442C59.23 0.724442 63.5946 2.01823 67.2776 4.3902C66.3374 2.17349 69.1233 -0.155411 71.5039 0.224106C73.8845 0.603607 75.644 2.56184 77.2051 4.39905C77.783 2.65672 78.8958 1.10408 80.3621 4.57764e-05C82.4495 2.88091 84.6921 5.89113 87.9525 7.3143C91.2129 8.73749 95.7669 7.84891 97.1211 4.55403C97.6817 9.03058 102.314 11.6444 106.402 13.5592C107.282 13.9646 108.153 14.3699 109.033 14.784C111.327 15.8449 113.613 16.9143 115.847 18.096C124.308 22.5639 131.847 28.6017 139.135 34.8033C160.319 52.8475 179.916 72.7546 197.623 94.2231C205.705 104.013 212.692 118.081 222.111 126.378L222.421 126.603C227.657 133.27 233.255 139.739 238.309 146.519C239.404 147.985 240.517 149.899 239.672 151.521C239.232 152.358 238.352 152.884 237.455 153.177C231.452 155.144 225.371 148.796 219.161 149.917C218.462 151.418 219.247 153.263 220.524 154.333C221.792 155.394 223.439 155.877 225.009 156.394C236.342 160.155 246.322 167.728 253.239 177.432C255.327 180.356 256.716 183.366 258.035 186.454L256.474 185.272C253.455 183.15 250.195 181.606 246.779 180.416C240.163 178.087 232.97 177.095 225.768 176.008C219.678 175.094 213.606 174.076 207.888 172.075C193.328 166.978 181.252 155.446 166.063 152.737C153.367 150.478 140.308 154.756 127.474 153.488C109.473 151.711 93.257 137.997 88.5303 120.539C87.3918 116.338 86.6672 111.62 83.3637 108.774C75.946 102.4 62.3006 110.637 55.4262 103.685C53.9513 102.184 53.0457 100.149 51.3896 98.8377L49.8802 97.9406C50.9066 96.4571 51.8123 94.8873 52.5455 93.2399Z" fill="#D4D7D9"/>
<path d="M219.161 149.917C225.371 148.796 231.452 155.144 237.455 153.177C238.352 152.884 239.232 152.358 239.672 151.521C240.517 149.9 239.405 147.985 238.309 146.519C233.255 139.739 227.657 133.27 222.421 126.603C230.831 133.71 246.702 134.779 257.13 137.54C260.399 138.402 263.797 139.273 267.135 138.687C273.664 137.557 277.917 131.381 281.41 125.74C281.919 128.612 282.428 131.476 282.937 134.348C287.87 131.416 292.804 128.483 297.738 125.55C296.78 128.242 296.323 131.105 296.401 133.96C301.291 131.674 306.173 129.389 311.064 127.103C309.227 129.423 308.951 132.865 310.382 135.461C316.291 133.253 322.191 131.062 328.09 128.854C328.47 130.915 328.849 132.977 329.237 135.038C337.069 133.27 344.901 131.519 352.741 129.759C352.698 135.771 346.333 139.463 340.839 141.904C321.38 150.547 300.567 159.388 279.512 156.213C275.812 155.661 272.164 154.73 268.42 154.488C261.58 154.049 254.671 155.963 248.798 159.482C254.188 168.134 263.935 172.809 272.146 178.855C274.967 180.934 277.917 183.858 277.46 187.334C277.106 189.999 274.812 191.732 272.138 192.354C270.533 192.724 268.791 192.699 267.247 192.224C263.754 191.163 260.951 188.696 258.035 186.454C256.716 183.366 255.327 180.356 253.24 177.432C246.322 167.728 236.343 160.155 225.009 156.395C223.439 155.877 221.792 155.394 220.524 154.333C219.247 153.263 218.462 151.418 219.161 149.917Z" fill="#D4D7D9"/>
<path d="M55.495 90.7731C59.0314 93.4642 62.197 94.9649 66.6132 92.6706C65.1986 91.6528 63.3612 90.9455 61.6793 90.5229C60.7564 90.29 55.5726 90.8248 55.495 90.7731Z" fill="#D4D7D9"/>
</svg>
