<svg width="110" height="359" viewBox="0 0 110 359" fill="none" xmlns="http://www.w3.org/2000/svg">
<path d="M87.8023 295.75C85.9856 293.292 86.0182 290.984 88.8888 288.262C88.8888 291.195 88.8888 293.505 88.8888 295.817C88.5259 295.793 88.1652 295.771 87.8023 295.75ZM79.1972 308.775C82.3958 311.019 84.471 312.932 85.1164 316.839C81.8374 314.89 79.6883 313.036 79.1972 308.775ZM78.5214 276.975C79.0451 276.912 79.5666 276.845 80.0903 276.782C80.3445 278.683 80.5988 280.584 80.853 282.486C80.275 282.547 79.6948 282.61 79.1168 282.67C78.919 280.771 78.7213 278.874 78.5214 276.975ZM78.2237 254.193C77.5327 252.49 76.0985 250.677 76.3375 249.119C76.633 247.194 78.2823 245.458 79.4644 243.722C79.584 243.55 80.9899 243.878 81.0203 244.084C81.1855 245.208 81.2528 246.401 81.0268 247.5C80.9464 247.898 79.9556 248.109 78.9647 248.617C79.0885 250.23 79.2254 252.016 79.3623 253.8C78.982 253.932 78.604 254.061 78.2237 254.193ZM77.3849 321.739C77.0372 321.715 76.6874 321.693 76.3397 321.671C76.3397 319.281 76.3397 316.891 76.3397 314.501C76.8243 314.509 77.311 314.514 77.7956 314.522C77.6587 316.928 77.5218 319.331 77.3849 321.739ZM71.5699 226.264C74.9924 226.794 77.6391 227.774 78.0976 231.635C78.2106 232.596 79.5579 233.406 79.6839 234.373C79.836 235.566 79.3058 236.851 79.0711 238.096C78.089 237.739 76.8091 237.657 76.1745 236.977C73.2149 233.806 71.4874 229.651 71.5699 226.264ZM61.0896 299.216C64.7772 306.849 68.1801 313.896 71.7807 321.354C61.6241 316.624 58.8775 311.728 61.0896 299.216ZM63.2973 265.621C63.7211 265.502 64.1448 265.378 64.5685 265.256C64.9445 267.177 65.3921 269.087 65.6442 271.023C65.6941 271.419 65.0162 271.91 64.6728 272.355C64.2143 271.912 63.4016 271.499 63.3603 271.019C63.2017 269.233 63.2973 267.425 63.2973 265.621ZM88.7888 262.677C89.1082 262.233 89.8384 261.779 90.3186 261.836C90.8271 261.901 91.655 262.559 91.6615 262.972C91.7028 265.08 91.5246 267.194 91.3986 269.806C88.3585 267.783 87.4394 264.537 88.7888 262.677ZM92.7567 304.222C92.6785 304.533 91.8593 304.894 91.479 304.807C91.1465 304.731 90.6945 304.025 90.738 303.651C90.9792 301.643 91.3573 299.65 91.8332 296.756C94.4908 299.75 93.3282 302.028 92.7567 304.222ZM53.0017 275.143C52.5323 275.008 52.0651 274.872 51.5957 274.737C52.1216 272.842 52.6474 270.949 53.1711 269.057C53.7644 269.237 54.3576 269.419 54.9487 269.6C54.2989 271.447 53.6514 273.296 53.0017 275.143ZM48.8882 319.212C48.7143 319.781 47.7126 320.2 47.0085 320.481C45.9655 320.896 44.8486 321.122 43.6469 321.465C42.6712 319.023 45.6852 313.736 50.996 310.7C50.1963 314.051 49.6683 316.669 48.8882 319.212ZM41.4717 250.816C39.8376 246.262 40.1766 244.313 43.1993 242.809C43.3123 245.823 44.2184 248.619 41.4717 250.816ZM34.8571 331.519C35.459 329.199 35.8871 327.547 36.313 325.907L36.2174 325.957H36.2196H36.2174L36.2609 325.885C35.8219 326.102 35.3721 326.326 34.6224 326.695C34.8071 323.562 34.9745 320.728 35.1548 317.677C36.6303 318.051 38.1514 318.436 40.4765 319.025C40.0897 319.653 39.7159 320.263 39.3487 320.857C38.2687 322.619 37.2648 324.253 36.263 325.885L36.3239 325.852L36.313 325.904C37.1366 325.446 37.9645 324.987 38.888 324.472C39.4639 324.153 40.0767 323.814 40.7481 323.44C39.868 326.821 38.8163 329.609 34.8571 331.519ZM33.9162 267.585C33.3316 268.037 33.2469 269.152 32.6559 269.58C30.8783 270.862 29.0139 272.049 27.0606 273.037C26.6803 273.227 25.2892 272.436 25.1907 271.936C25.0421 271.184 25.3867 270.032 25.9496 269.513C26.7933 268.739 28.0156 268.381 29.0639 267.816C33.7489 265.297 33.7467 265.293 33.1448 259.808C36.7889 262.238 36.9519 265.241 33.9162 267.585ZM34.3269 242.583C35.6242 244.497 37.3235 246.588 38.5382 248.928C39.4834 250.749 39.0662 252.383 36.4173 252.298C35.3656 252.264 34.3117 252.292 33.4294 252.292C33.7619 248.698 34.0444 245.634 34.3269 242.583ZM30.6567 158.494C33.2708 158.281 35.6111 158.092 38.5751 157.851C38.8141 159.064 39.1597 160.828 39.6355 163.251C35.5742 162.438 32.6863 161.311 30.6567 158.494ZM19.2658 272.981C18.6233 271.986 17.9816 270.993 16.8933 269.306C18.2523 268.12 19.2471 266.899 20.5305 266.334C20.9566 266.145 22.926 268.14 22.8326 268.29C21.798 269.95 20.4949 271.443 19.2658 272.981ZM93.6933 319.568C92.4177 318.145 91.19 316.776 89.9644 315.407C87.8479 313.04 87.8957 312.401 90.512 309.757C91.6572 311.158 92.7893 312.54 93.9931 314.009C94.5668 313.023 95.0231 312.241 95.4708 311.469C100.669 314.014 106.064 308.933 105.449 303.644C106.823 303.512 108.196 303.381 109.558 303.253C109.461 300.763 109.495 300.567 106.916 300.113C103.268 299.468 100.606 297.623 98.3022 294.763C97.0658 293.227 95.084 292.286 93.439 291.078C93.1696 291.282 92.9001 291.488 92.6307 291.693C92.5112 289.074 92.3938 286.458 92.2634 283.598C93.6954 284.022 94.6342 284.278 95.5599 284.578C97.3157 285.15 99.0693 285.028 99.456 283.027C99.7103 281.714 99.1062 280.135 98.563 278.807C98.2718 278.094 97.1679 277.751 96.6703 277.068C96.1357 276.338 95.8837 275.402 95.5056 274.556C96.2509 274.237 96.9701 273.752 97.7459 273.633C100.11 273.274 102.518 273.179 104.862 272.729C105.777 272.553 106.955 271.903 107.338 271.134C108.278 269.237 108.826 267.149 109.469 265.319C106.142 265.319 103.011 265.38 99.8863 265.302C96.6094 265.219 94.5625 263.083 94.5364 259.919C94.5299 259.083 94.4582 258.244 94.4017 257.12C90.11 257.574 86.053 258.007 81.8135 258.459C81.5505 256.901 81.3376 255.645 81.0681 254.041C82.0873 254.704 82.7674 255.149 83.9126 255.897C83.9126 251.953 83.9126 248.554 83.9126 244.693C85.1099 245.54 85.89 246.071 86.6462 246.633C90.16 249.252 91.027 249.108 94.2452 246.368C96.6073 244.356 99.1779 242.561 101.794 240.886C104.819 238.943 105.59 236.785 104.402 233.858C96.0271 231.366 87.3698 231.401 79.7665 226.831C82.5805 224.604 85.3033 222.78 87.6175 220.531C90.0013 218.219 91.718 215.401 91.1096 211.272C89.3603 211.985 87.8979 212.261 86.8418 213.069C83.2824 215.781 79.923 215.218 76.2549 213.223C72.5435 211.205 72.0567 209.929 74.4274 205.755C76.2897 206.596 78.1237 207.565 80.062 208.232C80.7769 208.48 81.9134 208.276 82.5436 207.832C84.5058 206.452 86.4745 205.007 88.1347 203.293C89.2277 202.163 90.3403 200.561 90.4338 199.108C90.5163 197.795 89.4581 195.487 88.4846 195.238C86.8918 194.827 84.9448 195.661 83.1911 196.135C82.8565 196.224 82.724 197.069 82.3676 197.852C81.0703 196.233 80.4119 195.248 79.5905 194.427C78.6713 193.51 77.6044 192.741 76.6026 191.911C74.2449 189.953 72.1806 190.066 70.2205 192.58C69.36 193.684 68.1475 194.512 66.8067 195.724C66.3547 191.83 69.3557 188.819 73.0802 187.908C75.0163 187.434 77.4132 186.422 78.3693 184.885C80.1642 182.008 81.0616 178.575 82.4762 175.009C80.0077 175.318 77.6783 175.574 75.3618 175.904C70.829 176.55 69.6295 175.402 71.8155 171.435C74.0233 167.425 76.9764 163.69 80.2054 160.435C82.1807 158.442 81.8309 156.723 81.4984 154.629C80.0751 154.976 78.5431 155.102 77.2523 155.728C75.5118 156.573 73.9646 157.821 72.3153 158.868C69.8185 160.452 67.7846 159.737 66.0875 157.538C63.406 154.068 64.4903 150.722 68.8515 148.998C70.9637 152.267 71.3874 152.225 74.862 150.009C79.0842 147.321 81.129 143.173 82.7957 138.77C83.2542 137.557 83.0695 136.097 83.1781 134.75C81.9221 135.154 80.4553 135.276 79.4471 136.017C76.1441 138.444 72.5109 139.396 67.7954 139.305C69.9424 133.17 77.7478 130.875 77.5457 123.161C75.3379 123.911 73.493 124.863 71.5699 125.078C70.151 125.234 68.4799 124.68 67.2087 123.946C66.5568 123.568 65.9679 121.61 66.3178 121.203C69.5947 117.425 72.6977 113.594 73.9885 108.615L74.5404 108.335C74.8208 107.611 75.1315 106.87 75.1989 106.114C75.2163 105.901 74.1645 105.334 74.0863 105.41C73.6234 105.875 73.078 106.44 72.9715 107.042C72.4957 109.784 70.4965 109.167 68.9341 108.73C67.1935 108.246 66.2113 107.157 67.4304 105.067C69.2883 101.877 70.942 98.5651 72.6086 95.2665C73.1519 94.1909 73.4626 92.9958 73.8798 91.8571L73.2975 91.4464C70.3314 93.3152 67.3652 95.1796 63.9384 97.3352C63.6428 93.8367 66.5025 90.9401 62.8519 88.9323C65.0792 84.6384 67.187 80.5792 69.2926 76.5201C67.3261 76.8438 65.9593 77.9303 64.4034 78.4735C63.3604 78.8386 61.5763 78.8734 60.9896 78.2475C60.4116 77.6282 60.7006 75.929 61.0113 74.8142C61.409 73.3866 62.2108 72.0675 63.1539 70.0162C61.0135 70.6377 59.9379 70.9507 58.8362 71.2723C57.9235 68.7538 58.8774 67.3717 60.8657 66.2852C63.1191 65.0574 65.1879 63.5712 65.7115 60.14C63.0388 62.1978 60.7593 63.154 58.7558 59.927C59.9205 57.2564 61.12 54.5119 62.5172 51.3089C60.9179 51.5609 59.8379 51.7282 58.332 51.9629C59.1252 49.2532 59.8075 46.9194 60.6028 44.1967C59.4511 45.0833 58.6841 45.6743 57.917 46.2631C57.6693 46.1414 57.4215 46.0198 57.176 45.8959C57.9061 42.7016 58.6384 39.5117 59.3816 36.2652C58.7123 36.3652 58.2017 36.4456 58.6015 36.3826C58.2082 33.4664 57.7627 30.8196 57.5302 28.1534C57.415 26.817 57.4585 25.3763 57.8388 24.1072C58.4928 21.9277 60.4594 19.8373 57.4889 17.8142C57.1695 17.5991 57.2999 16.3539 57.5519 15.7194C59.8292 9.99792 56.4328 5.17172 54.9182 -3.05176e-05C54.5684 6.02136 54.2185 12.0406 53.8578 18.2488C51.5653 18.9811 51.3176 20.1306 52.9951 22.5948C53.7752 23.7378 54.3381 25.2133 54.4576 26.5867C54.8226 30.7501 51.8847 34.6832 53.5058 39.0097C53.7861 39.755 53.5449 40.6938 53.5449 41.6129C52.6192 41.7716 51.8108 41.9106 50.3245 42.1649C55.6897 48.7165 53.5514 56.4307 55.5701 63.3995C55.2594 63.5668 54.9487 63.7362 54.6379 63.9057C52.2933 62.3933 49.9486 60.881 47.6018 59.3664C47.3736 59.5576 47.1433 59.751 46.9151 59.9422C47.8908 61.6871 48.7404 63.519 49.866 65.1574C52.6844 69.2535 52.7344 69.2188 50.2267 72.0328C51.0894 74.4731 51.7739 76.4135 52.6627 78.9299C49.1055 78.9299 46.5978 78.9299 43.9859 78.9299C43.962 84.1472 45.2897 88.2933 49.451 91.1943C51.3176 92.4981 51.561 94.2995 51.0047 96.4073C50.3093 99.0562 48.3036 99.908 45.9655 100.384C44.0054 100.786 42.7994 100.012 41.7303 98.2631C40.7785 96.7115 39.2009 95.5424 37.4604 93.7563C34.944 99.8559 39.4009 102.902 41.5152 106.805C45.2745 107.383 46.0242 111.694 42.8059 115.849C41.1067 113.802 39.3943 111.744 37.682 109.687C37.2539 109.943 36.8258 110.199 36.3978 110.454C37.7885 113.909 39.0054 117.448 40.6634 120.769C41.2566 121.962 42.9103 122.627 44.553 123.898C44.1641 124.563 43.3275 125.999 42.6712 127.12C39.7203 125.941 37.1909 124.93 34.29 123.77C34.3204 127.46 35.7524 130.006 37.8754 132.292C38.6773 133.153 39.5834 134.02 40.0527 135.058C40.4461 135.932 40.2744 137.06 40.3526 138.077C39.3074 138.127 38.0797 138.548 37.2539 138.146C35.5307 137.305 34.0205 136.03 32.4234 134.93C32.1974 135.121 31.9735 135.315 31.7475 135.506C33.7532 138.372 35.7589 141.239 37.7798 144.126C35.9045 146.326 34.8115 146.343 32.4646 143.92C30.409 141.795 28.4337 139.591 26.4241 137.423C25.9758 137.666 25.5269 137.909 25.0777 138.151C26.1032 141.236 26.3544 145 28.3294 147.253C31.5042 150.878 30.5394 154.007 29.2855 157.664C26.4656 156.756 23.8215 155.904 20.0059 154.679C20.8625 157.827 21.4686 160.118 22.1094 162.399C23.3928 166.969 30.233 167.458 30.0352 173.145C30.033 173.236 30.3785 173.384 30.5785 173.432C33.3056 174.066 32.0192 175.646 31.2325 176.815C30.309 178.184 29.0769 179.346 27.772 180.833C36.4347 181.763 36.8932 182.243 35.044 188.538C31.6411 186.087 32.067 190.644 29.9048 191.409C29.605 190.125 29.3507 189.021 29.0074 187.55C24.6618 188.695 20.6663 188.293 17.0809 184.396C19.5596 196.383 30.0939 208.654 37.6407 207.871C35.9632 210.392 34.6072 212.428 33.8184 213.612C27.6108 213.928 25.7892 209.934 23.5169 205.425C22.5949 209.495 21.8895 212.609 21.1096 216.053C19.5714 214.91 18.7413 214.29 17.0335 213.019C16.5098 215.09 15.5157 216.748 15.8935 217.991C16.6947 220.623 17.9138 223.252 19.5222 225.477C20.9295 227.42 21.0714 228.984 19.76 230.766C18.8152 232.048 17.7024 233.209 17.2091 233.787C13.6399 233.015 10.7216 232.383 7.70307 231.727C7.01054 238.604 14.2001 239.358 15.0013 245.062C16.6074 242.778 17.6293 241.323 18.6522 239.867C18.9875 240.025 19.3228 240.184 19.6581 240.347C18.6589 242.709 17.547 245.036 16.7058 247.455C16.2534 248.756 15.6278 250.79 16.2297 251.464C16.9927 252.314 19.029 252.57 20.3328 252.274C22.931 251.683 25.4046 250.543 28.0054 249.602C28.1773 252.077 28.2447 254.217 24.9513 254.708C24.0423 254.843 23.2266 256.236 22.5568 257.185C21.8337 258.209 21.3328 259.389 20.6681 260.625C19.293 259.611 18.3084 258.372 17.1115 258.111C14.7145 257.592 12.2053 257.551 9.73527 257.433C8.85064 257.392 7.39669 257.455 7.17591 257.924C6.78564 258.754 6.78803 260.162 7.26935 260.916C7.9747 262.027 9.1088 263.216 10.3039 263.594C13.8418 264.711 15.2653 267.407 16.783 271.017C13.8511 270.799 11.3939 270.756 8.98058 270.402C6.76695 270.074 1.71211 271.849 0.509358 273.646C-0.659499 275.395 0.264901 277.657 2.44898 278.214C3.39033 278.453 4.38752 278.47 5.36211 278.57C8.1555 278.861 9.0486 280.55 8.66485 283.12C8.53664 283.979 8.3804 284.863 8.03837 285.65C7.11832 287.773 8.17418 288.107 9.90497 287.931L9.90323 287.868L10.0008 287.862C11.2877 285.947 12.5712 284.039 13.5328 282.61C14.801 282.036 15.7008 281.447 16.6854 281.223C18.7532 280.756 20.8626 280.297 22.9625 280.261C23.4973 280.25 24.4573 281.814 24.4921 282.683C24.5228 283.464 23.7307 284.683 22.9897 285.015C20.1324 286.304 17.8067 287.699 18.4577 291.482C18.5596 292.075 17.2882 293.548 16.9637 293.462C15.8705 293.164 14.6397 292.56 13.9744 291.684C12.8257 290.172 12.859 287.536 10.0008 287.862L9.95582 287.927L9.90497 287.931C10.2531 293.794 8.53251 298.727 3.19323 301.802C6.45795 303.134 9.32175 304.39 12.2596 305.433C12.8794 305.652 13.8733 305.248 14.5226 304.848C15.4046 304.307 16.1193 303.494 17.0691 302.653C18.26 304.218 19.2693 305.546 20.4814 307.138C21.933 305.593 23.1577 304.287 24.5304 302.827C26.3418 304.959 28.1056 305.163 30.0265 303.097C30.4003 302.695 31.8866 302.625 32.1517 302.96C32.8254 303.814 33.6163 305.083 33.4403 306.008C32.6819 310.033 28.0817 312.767 24.0549 311.91C20.1426 311.08 16.2186 310.315 12.2129 309.503C12.2129 313.694 12.2129 317.673 12.2129 321.878C14.6058 321.984 16.8179 322.082 20.2802 322.234C18.8721 324.255 18.2652 326.172 17.1022 326.606C12.9489 328.164 8.99667 333.019 4.24236 327.893C1.94984 330.509 1.60434 334.859 3.7052 336.885C4.38252 337.537 5.95794 337.545 7.05791 337.393C8.22524 337.23 9.31848 336.524 9.84305 336.309C11.259 337.908 12.0473 339.497 13.2775 339.994C14.5565 340.514 16.2636 339.979 17.8779 339.903C18.2032 340.883 18.5724 341.993 19.007 343.295C21.6757 342.313 22.4786 343.619 22.3361 345.927C22.2309 347.65 22.5227 348.949 24.6823 348.945C26.6634 348.943 28.1175 348.441 28.2295 346.12C28.2707 345.255 28.4033 344.388 28.5597 343.532C29.2377 339.773 29.8375 339.471 33.1187 341.363C34.981 342.437 36.6172 343.295 38.6685 341.428C39.2292 340.92 41.1805 341.404 42.1258 342.011C42.9885 342.563 43.3492 343.893 43.9989 344.994C45.8373 342.174 47.6257 339.623 49.1924 336.943C49.9942 335.57 51.0286 333.888 50.8569 332.48C50.5092 329.635 51.7131 328.795 54.3207 328.577C54.3207 335.561 54.94 342.53 54.1599 349.338C53.2342 357.426 53.8535 358.565 62.0761 357.811C64.1731 357.617 64.7967 356.794 64.0448 354.877C60.316 345.381 60.9657 335.42 60.9874 325.535C60.9896 324.766 61.7349 324.001 62.1348 323.232C62.8062 323.807 63.7971 324.253 64.084 324.979C64.8619 326.945 65.34 329.029 66.0636 331.498C66.9197 330.557 67.4195 330.033 67.8932 329.486C68.4126 328.888 68.9059 328.269 69.4882 327.565C75.3684 336.902 75.3684 336.902 78.1172 337.358C77.2502 333.992 76.4375 330.835 75.6226 327.68C75.9725 327.571 76.3223 327.462 76.67 327.356C77.2741 328.442 77.9542 329.496 78.4649 330.624C79.7665 333.495 80.8139 336.491 82.2872 339.262C84.5623 343.547 88.289 344.29 92.8023 341.424C91.5116 339.194 90.2165 336.954 88.9213 334.714C89.1408 334.531 89.3603 334.349 89.5798 334.168C91.0444 335.314 92.509 336.459 94.3104 337.869C98.7085 333.091 102.994 328.436 107.85 323.16C101.694 323.814 96.4812 324.368 90.8162 324.97C91.9223 322.89 92.7719 321.3 93.6933 319.568Z" fill="#1B2B33" fill-opacity="0.19"/>
</svg>
