<svg width="81" height="176" viewBox="0 0 81 176" fill="none" xmlns="http://www.w3.org/2000/svg">
<path d="M66.5826 175.102C66.5392 167.577 66.3827 160.111 65.7395 152.644C65.1007 145.185 63.9381 137.772 62.5017 130.412C61.0654 123.05 59.3552 115.738 57.5299 108.45C55.7285 101.153 53.9054 93.8626 51.8736 86.6374C47.8101 72.1891 42.8817 57.9799 36.5648 44.3725C30.2283 30.7761 22.2817 17.9619 13.7505 5.59753L14.1025 5.34108C23.0922 17.4143 31.1649 30.2198 37.76 43.8032C44.3789 57.3779 49.3355 71.6959 53.499 86.1746C57.556 100.695 61.2979 115.269 64.1619 130.091C65.5722 137.503 66.7087 144.976 67.3193 152.51C67.9495 160.031 68.0929 167.647 67.0172 175.133L66.5826 175.102Z" fill="#D4D7D9"/>
<path d="M54.7964 90.2032C54.7247 85.0792 55.7004 80.3986 57.0238 75.8787C58.3841 71.3763 60.1811 67.0716 62.3498 62.9668C64.5141 58.8576 67.063 54.9505 70.0205 51.2956C73.0127 47.658 76.3374 44.2225 80.6291 41.4063C80.2423 46.5194 78.982 51.0674 77.4826 55.4678C75.9485 59.842 74.097 64.0228 71.9544 68.0516C69.814 72.0782 67.3999 75.9592 64.6423 79.6902C61.8435 83.4039 58.7969 87.0023 54.7964 90.2032Z" fill="#D4D7D9"/>
<path d="M49.1685 75.7527C43.5991 74.4337 38.6794 72.252 33.9444 69.7879C29.2377 67.2889 24.7722 64.4032 20.5653 61.1437C16.3605 57.8863 12.4144 54.2444 8.87238 50.1635C5.35646 46.0608 2.16431 41.5801 0 36.2758C5.33689 38.3445 9.94145 40.9326 14.4222 43.664C18.8703 46.4216 23.1338 49.3638 27.2321 52.5603C31.3325 55.7503 35.283 59.1814 39.0228 62.9473C42.7386 66.7478 46.2806 70.8135 49.1685 75.7527Z" fill="#D4D7D9"/>
<path d="M29.4701 29.094C28.8182 28.755 28.7943 28.3052 28.7161 27.8685C28.6444 27.4317 28.5727 26.9949 28.5227 26.5538C28.4336 25.6716 28.4227 24.7806 28.4966 23.894C28.6009 22.1317 28.8725 20.3521 29.7005 18.744L30.1285 18.8309C30.2698 20.5998 30.159 22.2534 30.1872 23.9331L30.2763 26.4364L30.3111 27.6903C30.3328 28.1118 30.424 28.5116 29.9025 29.0266L29.4701 29.094Z" fill="#D4D7D9"/>
<path d="M21.1215 16.0973C20.4914 15.9257 20.474 15.6106 20.3957 15.3129L20.1654 14.4154C20.0307 13.8113 19.9351 13.1986 19.8829 12.5792C19.7395 11.3515 19.6026 10.1151 19.8829 8.8504L20.3154 8.80042C21.0086 9.94125 21.2823 11.1146 21.5496 12.2946C21.7039 12.8791 21.8147 13.4702 21.8864 14.0721L21.9647 14.9804C21.9886 15.2825 22.0755 15.5693 21.5474 15.9995L21.1215 16.0973Z" fill="#D4D7D9"/>
<path d="M30.4195 31.8452C29.6655 32.0538 29.2635 31.743 28.8245 31.4822L27.512 30.6978C26.6493 30.1567 25.8084 29.583 24.9914 28.9746C23.3355 27.7903 21.6819 26.6017 20.2607 25.0632L20.5041 24.7003C22.4685 25.4217 24.2004 26.4952 25.9301 27.5687C26.8058 28.0902 27.6577 28.6465 28.4877 29.2354L29.7155 30.148C30.124 30.4523 30.5673 30.7043 30.6607 31.4822L30.4195 31.8452Z" fill="#D4D7D9"/>
<path d="M22.999 19.3611C22.2841 19.6436 21.8733 19.3764 21.43 19.1656L20.1045 18.5224C19.2332 18.0769 18.3792 17.5945 17.5447 17.0751C15.8585 16.0734 14.1744 15.0652 12.6946 13.6896L12.9054 13.305C14.8589 13.8222 16.6125 14.7066 18.3596 15.5932C19.244 16.0191 20.1089 16.4841 20.9542 16.9839L22.2036 17.7597C22.6208 18.0183 23.0685 18.2225 23.2119 18.9809L22.999 19.3611Z" fill="#D4D7D9"/>
<path d="M34.1834 14.8109C32.8361 6.72514 23.9507 15.2411 29.2811 18.6028C30.9739 19.6697 33.6271 18.8244 34.1682 16.9013C34.3572 16.2234 34.3007 15.5041 34.1834 14.8109Z" fill="#D4D7D9"/>
<path d="M23.9681 4.75421C21.7147 0.47774 16.8341 4.48476 19.0354 8.18321C19.8285 9.51091 21.8429 9.83684 23.0924 8.92418C24.344 8.01152 24.6895 6.12537 23.9681 4.75421Z" fill="#D4D7D9"/>
<path d="M14.5765 4.37829C14.5092 2.07491 11.6625 -1.11936 9.27654 0.390871C6.9384 1.87286 8.87455 4.9911 10.6955 6.13627C11.619 6.71646 12.8729 7.10543 13.7551 6.46005C14.3809 6.00154 14.5983 5.15406 14.5765 4.37829Z" fill="#D4D7D9"/>
<path d="M13.3376 12.6814C12.1881 10.8387 7.05335 8.65052 6.16024 11.9274C5.46054 14.5002 9.5979 15.6693 11.2385 15.4912C12.3533 15.3695 13.7353 14.8327 13.7179 13.7136C13.7114 13.342 13.5354 12.9965 13.3376 12.6814Z" fill="#D4D7D9"/>
<path d="M19.0418 26.167C23.7572 24.5829 16.419 17.0013 12.8184 21.9144C11.3951 23.8571 13.505 26.1648 15.5759 26.5364C16.7319 26.745 17.9293 26.5408 19.0418 26.167Z" fill="#D4D7D9"/>
<path d="M62.0021 127.898C63.8404 126.942 65.3506 125.467 66.7892 123.976C68.2994 122.407 69.8227 120.693 70.3008 118.57C70.6072 117.201 70.4529 115.777 70.2508 114.391C70.0965 113.331 69.8922 112.22 69.2099 111.394C68.5276 110.566 67.2086 110.169 66.3633 110.825C66.2611 109.265 66.1482 107.661 65.4637 106.26C64.7813 104.854 63.3754 103.682 61.8152 103.758C60.4788 103.826 59.3184 104.791 58.6513 105.949C57.9842 107.109 57.7213 108.45 57.4692 109.767C56.0415 107.67 52.7495 107.446 50.7025 108.945C48.6577 110.443 47.8124 113.196 48.0688 115.719C42.2864 112.939 38.9987 121.073 43.4121 124.582C48.0753 128.294 56.487 130.76 62.0021 127.898Z" fill="#D4D7D9"/>
<path d="M44.4963 102.085C48.5772 100.968 51.7802 98.4454 53.0732 94.0951C53.8728 91.4158 53.8294 88.5648 53.7338 85.7682C53.6903 84.5361 53.6294 83.2649 53.1057 82.1458C52.582 81.0267 51.476 80.0923 50.2417 80.1488C48.5272 80.2314 47.4864 82.0197 46.7671 83.5799C46.1478 81.609 43.2469 81.2461 41.5802 82.4674C39.9135 83.6908 39.2311 85.8268 38.7726 87.8412C36.8582 86.4157 33.8638 86.7373 32.2949 88.5387C30.7303 90.3402 30.8282 93.3519 32.5057 95.049C30.7782 93.3041 23.479 99.6841 28.3422 102.835C29.8264 103.8 31.7256 103.756 33.49 103.63C36.667 103.4 39.8309 103 42.9643 102.431C43.488 102.335 43.9987 102.22 44.4963 102.085Z" fill="#D4D7D9"/>
<path d="M70.4922 40.6544C70.3335 37.4622 67.0871 34.4961 63.9101 34.4809C60.3029 34.4679 57.0543 37.2428 57.037 40.9565C57.0174 44.5419 60.3334 47.8014 63.9188 47.721C67.5043 47.6406 70.6725 44.2377 70.4922 40.6544Z" fill="#D4D7D9"/>
<path d="M62.7172 42.1972C64.6989 42.9099 66.2505 39.6722 63.795 39.3071C62.1327 39.0594 60.8136 41.5105 62.7172 42.1972Z" fill="#D4D7D9"/>
</svg>
