<svg width="1440" height="633" viewBox="0 0 1440 633" fill="none" xmlns="http://www.w3.org/2000/svg">
<path d="M1044.8 363.097L1163 446.351L737 427.549V370.493L781.425 328.23C792.848 313.86 797.819 322.242 798.877 328.23C808.926 319.425 829.657 303.294 832.196 309.211C834.734 315.128 866.572 315.686 876.62 319.56C898.832 339.635 941.512 353.16 950.397 356.541C961.503 360.767 998.788 382.116 1009.89 380.003C1018.78 378.312 1036.87 368.028 1044.8 363.097Z" fill="url(#paint0_linear)"/>
<path d="M321.279 253.229C293.28 250.94 277.233 226.038 272.709 213.873C265.19 200.706 250.53 208.387 244.139 213.873C238.425 223.605 183.666 247.505 157 258.238V487.221L928.233 481.946V456.629L767.689 385.61C755.118 383.893 701.977 357.703 676.978 344.822C659.598 327.172 623.838 292.013 619.838 292.586C615.838 293.158 585.315 274.696 570.554 265.394C554.126 261.101 536.984 213.873 530.556 213.873C525.413 213.873 517.461 201.947 514.128 195.984C508.985 185.679 497.224 184.057 491.986 184.535C474.844 188.828 441.988 226.038 433.417 230.331C426.56 233.766 412.942 237.964 406.99 239.633C393.847 241.923 381.514 278.274 376.991 296.164L344.135 269.687L321.279 253.229Z" fill="#E85F42"/>
<path d="M158.3 212.109C131.321 209.819 115.858 184.916 111.499 172.751C104.253 159.584 90.1259 167.265 83.9681 172.751C78.462 182.483 25.6951 206.384 0 217.118V446.108H733L638.02 433.154L583.647 389.503C571.533 387.785 532.185 386.64 508.095 373.76C491.348 356.108 463.713 240.75 436.14 291.058C406.657 344.851 383.821 282.879 369.597 273.576C353.767 269.283 344.645 221.085 341.378 215.613C328.99 194.861 339.084 167.191 335.872 161.228C330.917 150.923 327.843 142.935 322.795 143.412C306.277 147.705 274.617 184.916 266.358 189.21C259.75 192.645 246.628 196.843 240.892 198.513C228.228 200.803 216.344 237.155 211.985 255.045L180.325 228.568L158.3 212.109Z" fill="#B63634"/>
<path d="M1440 120V468H0V120H714.098H1440Z" fill="url(#paint1_linear)"/>
<rect y="447" width="1440" height="42" fill="#FFE6BB"/>
<path fill-rule="evenodd" clip-rule="evenodd" d="M612.932 415.917L613.354 415.827V416.007L643.289 422.418L633.396 417.561C639.075 417.214 654.72 417.353 671.868 420.683L666.922 414.092C672.234 413.745 684.839 414.578 692.753 420.683C697.268 418.403 705.488 412.999 702.769 409.389C705.824 413.148 714.801 420.775 727.378 422.418L719.683 417.561L751.56 422.418C753.209 421.377 754.967 418.949 748.812 417.561C742.656 416.174 756.14 419.064 763.651 420.683L776.842 417.561V420.683C783.986 419.527 801.024 418.741 812.016 424.846L816.413 417.561L819.161 422.418C824.107 415.364 834.659 401.119 837.298 400.564C838.061 400.403 837.647 401.283 836.852 402.97C834.213 408.576 827.377 423.097 845.542 438.028L849.389 431.09L854.335 434.906C857.266 428.083 866.316 415.064 879.067 417.561C871.556 421.377 857.193 430.188 859.831 434.906C871.006 431.437 895.445 424.915 903.799 426.58L898.853 434.906L903.799 432.998C908.619 434.223 916.609 436.344 919.532 437.397C919.197 436.257 919.828 433.726 920.491 431.062C921.156 428.39 921.854 425.586 921.646 423.921C922.038 424.149 922.483 424.401 922.97 424.678C929.169 428.197 942.271 435.636 942.271 445.659L948.317 434.906L952.164 442.19L962.057 440.109L955.462 447.741C962.606 445.89 979.094 442.537 987.888 443.925L983.491 447.741C988.438 446.469 1000.53 445.035 1009.32 449.475V440.109C1017.75 441.843 1036.03 448.365 1041.75 460.575L1045.6 449.475L1051.09 453.985V443.925C1051.09 442.537 1061.72 455.603 1067.03 462.31L1072.53 455.719C1077.66 456.297 1086.38 455.511 1080.22 447.741C1086.63 447.856 1099.46 451.695 1099.46 466.126L1129.68 460.575L1120.34 468.207L1129.68 466.126L1120.34 473.757C1127.85 470.982 1146.83 465.987 1162.66 468.207C1167.24 467.166 1176.95 466.542 1179.15 472.37C1180.61 469.363 1180.8 462.31 1169.81 458.147C1174.39 458.263 1185.08 461.061 1191.24 471.329L1195.64 468.207H1211.58L1203.33 472.37C1207.54 471.676 1216.85 470.496 1220.37 471.329L1222.02 466.126L1225.86 471.329V489.02H613.354H612.511H0V471.329L3.84717 466.126L5.49597 471.329C9.01343 470.496 18.3199 471.676 22.5336 472.37L14.2896 468.207H30.228L34.6248 471.329C40.7803 461.061 51.4792 458.263 56.0591 458.147C45.0672 462.31 45.2504 469.363 46.7159 472.37C48.9144 466.542 58.624 467.166 63.204 468.207C79.0325 465.987 98.012 470.982 105.523 473.757L96.18 466.126L105.523 468.207L96.18 460.575L126.408 466.126C126.408 451.695 139.232 447.856 145.644 447.741C139.488 455.511 148.209 456.297 153.338 455.719L158.834 462.31C164.147 455.603 174.773 442.537 174.773 443.925V453.985L180.269 449.475L184.116 460.575C189.832 448.365 208.115 441.843 216.542 440.109V449.475C225.336 445.035 237.427 446.469 242.374 447.741L237.977 443.925C246.77 442.537 263.258 445.89 270.403 447.741L263.808 440.109L273.701 442.19L277.548 434.906L283.594 445.659C283.594 435.636 296.696 428.197 302.894 424.678C303.382 424.401 303.827 424.149 304.219 423.921C304.01 425.586 304.708 428.39 305.374 431.062C306.037 433.726 306.667 436.257 306.333 437.397C309.255 436.344 317.246 434.223 322.066 432.998L327.012 434.906L322.066 426.58C330.419 424.915 354.858 431.437 366.034 434.906C368.672 430.188 354.309 421.377 346.798 417.561C359.548 415.064 368.598 428.083 371.53 434.906L376.476 431.09L380.323 438.028C398.487 423.097 391.652 408.576 389.013 402.97C388.218 401.283 387.804 400.403 388.567 400.564C391.205 401.119 401.758 415.364 406.704 422.418L409.452 417.561L413.849 424.846C424.841 418.741 441.878 419.527 449.023 420.683V417.561L462.214 420.683C469.725 419.064 483.208 416.174 477.053 417.561C470.897 418.949 472.656 421.377 474.305 422.418L506.182 417.561L498.487 422.418C511.064 420.775 520.04 413.148 523.096 409.389C520.377 412.999 528.596 418.403 533.112 420.683C541.026 414.578 553.63 413.745 558.943 414.092L553.997 420.683C571.144 417.353 586.789 417.214 592.469 417.561L582.576 422.418L612.511 416.007V415.827L612.932 415.917ZM523.219 409.236C523.176 409.287 523.135 409.338 523.096 409.389C523.138 409.338 523.179 409.286 523.219 409.236ZM305.578 422.418C304.734 422.418 304.335 422.992 304.219 423.921C305.916 422.936 306.632 422.418 305.578 422.418ZM920.287 422.418C921.131 422.418 921.529 422.992 921.646 423.921C919.948 422.936 919.233 422.418 920.287 422.418ZM702.769 409.389C702.73 409.338 702.689 409.287 702.646 409.236L702.677 409.276C702.707 409.313 702.738 409.351 702.769 409.389Z" fill="url(#paint2_linear)"/>
<rect y="489" width="1440" height="41" fill="url(#paint3_linear)"/>
<rect y="572.814" width="1365" height="41.8227" fill="url(#paint4_linear)"/>
<rect y="530" width="1440" height="43" fill="url(#paint5_linear)"/>
<path d="M36.824 462.588V498.552V502.783H12.7468V472.46C12.1803 464.563 4.01288 462.588 0 462.588V58.5287C16.4292 52.8874 33.7554 17.159 40.3648 0L60.9013 38.0789V45.8357L68.691 43.7202L65.8584 49.3615H71.5236V56.4132H76.4807V63.4648C96.309 61.3493 97.7253 80.3888 93.5856 81.094C90.2739 81.6581 88.8282 85.56 88.5193 87.4404C95.3176 92.5176 102.682 95.1973 105.515 95.9024L85.6867 111.416L74.3562 108.595L76.4807 115.647C104.807 116.211 112.833 121.994 113.305 124.814C112.597 144.559 122.511 148.085 118.97 148.085C116.137 148.085 103.627 157.017 97.7253 161.483H88.5193C85.6867 161.483 85.4506 166.654 85.6867 169.24H93.5856L121.094 181.933L102.682 183.343L104.099 188.984C123.361 186.728 132.897 196.036 135.258 200.972C120.528 209.998 116.845 207.554 116.845 205.203L105.515 215.075C115.146 213.383 118.498 215.78 118.97 217.191L116.845 224.948L121.094 221.422V228.473L126.76 224.948L132.425 232.704C125.343 236.23 109.056 238.346 105.515 239.051C102.682 239.615 103.391 243.517 104.099 245.397L109.056 244.692V250.334C114.721 249.205 144.464 258.796 158.627 263.732L122.511 274.309L165 295.464C138.94 302.234 118.734 302.516 111.888 301.811L114.721 315.209C131.717 312.388 143.047 322.966 146.588 328.607L153.67 330.017L160.751 346.941L155.794 349.057C164.858 352.441 162.876 355.638 160.751 356.813C122.239 355.357 108.932 352.752 106.118 351.155C109.407 355.512 103.436 360.446 99.8498 362.455L139.506 367.391C158.202 381.494 152.489 386.43 147.296 387.136C137.382 394.187 160.751 417.458 155.086 417.458H139.506C135.541 419.15 124.635 418.163 119.678 417.458L116.137 424.509C151.545 421.689 162.167 457.652 160.751 457.652C159.335 457.652 140.215 467.524 133.841 468.229C127.468 468.935 109.764 462.588 108.348 460.473C107.215 458.78 102.21 463.058 99.8498 465.409L95.6009 457.652H78.6051C76.0086 454.831 70.9571 449.613 71.5236 451.306C72.0901 452.998 68.927 454.831 67.2747 455.537V449.19L61.6094 451.306L50.279 449.19L47.4464 457.652C41.7811 453.703 38.0043 459.297 36.824 462.588Z" fill="url(#paint6_linear)"/>
<path fill-rule="evenodd" clip-rule="evenodd" d="M282.392 490.136V493.021C280.727 493.021 277.839 493.603 276.186 495.592V514.031V516.503L274.945 516.503L262.12 516.503L260.879 516.503V514.031V495.592C259.226 493.603 256.338 493.022 254.673 493.022V490.136L253.019 485.194L246.4 486.43L243.09 485.194V488.902C242.125 488.49 240.277 487.419 240.608 486.43C240.939 485.441 237.988 488.49 236.471 490.138H226.542L224.06 494.669C222.681 493.296 219.758 490.797 219.096 491.786C218.268 493.021 207.926 496.729 204.203 496.317C201.788 496.05 196.242 493.53 192.416 491.792C190.342 490.85 188.773 490.138 188.482 490.138C187.655 490.138 193.86 469.128 214.545 470.776L212.477 466.657C209.581 467.068 203.21 467.645 200.893 466.657H191.792C190.513 466.657 191.767 464.626 193.454 461.896C196.131 457.563 199.896 451.47 196.342 448.943C193.309 448.531 189.972 445.647 200.893 437.408L224.06 434.524C221.965 433.351 218.477 430.468 220.398 427.923C218.755 428.856 210.98 430.378 188.482 431.229C187.241 430.542 186.083 428.675 191.378 426.697L188.482 425.461L192.619 415.575L196.756 414.751C198.825 411.455 205.444 405.276 215.373 406.924L217.027 399.096C213.028 399.508 201.224 399.344 186 395.389L210.822 383.03L189.723 376.851C197.997 373.967 215.373 368.365 218.682 369.024V365.728L221.578 366.14C221.992 365.042 222.405 362.762 220.751 362.433C220.362 362.355 219.712 362.249 218.884 362.114C215.301 361.528 208.391 360.398 205.03 358.725L208.34 354.194L211.649 356.254V352.134L214.131 354.194L212.89 349.662C213.166 348.838 215.124 347.438 220.751 348.426L214.131 342.659C214.131 344.032 211.98 345.46 203.375 340.187C204.754 337.304 210.325 331.866 221.578 333.184L222.405 329.889L211.649 329.065L227.72 321.65H232.334C232.472 320.139 232.334 317.118 230.679 317.118H225.301C221.854 314.509 214.545 309.291 212.89 309.291C212.217 309.291 212.377 309.073 212.885 308.379C213.936 306.944 216.479 303.474 216.2 295.697C216.476 294.049 221.164 290.671 237.712 290.341L238.953 286.222L232.334 287.87L220.751 278.807C222.405 278.395 226.708 276.829 230.679 273.863C230.499 272.765 229.654 270.485 227.72 270.156C225.301 269.744 226.129 258.621 237.712 259.857V255.737H240.608V251.618H243.918L242.263 248.322L246.814 249.558V245.027L267.912 220.721C267.957 220.838 268.002 220.956 268.046 221.076C268.137 220.813 268.23 220.557 268.325 220.31L290.251 245.027V249.558L294.802 248.322L293.147 251.618H296.457V255.737H299.353V259.857C310.936 258.621 311.764 269.744 309.345 270.156C307.41 270.485 306.566 272.765 306.385 273.863C310.357 276.829 314.659 278.395 316.314 278.807L304.731 287.87L298.111 286.222L299.353 290.341C315.901 290.671 320.589 294.049 320.865 295.697C320.586 303.475 323.128 306.944 324.18 308.379C324.688 309.073 324.848 309.291 324.174 309.291C322.52 309.291 315.211 314.509 311.764 317.118H306.385C304.731 317.118 304.593 320.139 304.731 321.65H309.345L325.416 329.065L314.659 329.889L315.487 333.184C326.739 331.866 332.311 337.304 333.69 340.187C325.085 345.46 322.933 344.032 322.933 342.659L316.314 348.426C321.94 347.438 323.899 348.838 324.174 349.662L322.933 354.194L325.416 352.134V356.254L328.725 354.194L332.035 358.725C328.674 360.399 321.764 361.528 318.181 362.114C317.353 362.249 316.702 362.356 316.314 362.433C314.659 362.762 315.073 365.042 315.487 366.14L318.383 365.728V369.024C321.692 368.365 339.068 373.968 347.342 376.851L326.243 383.03L351.065 395.389C335.841 399.344 324.037 399.508 320.037 399.097L321.692 406.924C331.621 405.276 338.24 411.455 340.309 414.751L344.446 415.575L348.583 425.461L345.687 426.697C350.982 428.675 349.824 430.542 348.583 431.229C326.084 430.378 318.31 428.856 316.667 427.923C318.588 430.468 315.1 433.351 313.005 434.524L336.172 437.408C347.093 445.647 343.756 448.531 340.722 448.943C337.169 451.47 340.934 457.563 343.611 461.896C345.297 464.626 346.552 466.657 345.273 466.657H336.172C333.855 467.645 327.484 467.069 324.588 466.657L322.52 470.776C343.205 469.128 349.41 490.138 348.583 490.138C348.292 490.138 346.723 490.85 344.649 491.792C340.823 493.531 335.277 496.05 332.862 496.317C329.139 496.729 318.796 493.021 317.969 491.786C317.307 490.797 314.384 493.296 313.005 494.669L310.522 490.138H300.594C299.077 488.49 296.126 485.442 296.457 486.43C296.788 487.419 294.94 488.49 293.975 488.902V485.194L290.665 486.43L284.046 485.194L282.392 490.136Z" fill="url(#paint7_linear)"/>
<path fill-rule="evenodd" clip-rule="evenodd" d="M484.392 543.907V546.793C482.727 546.793 479.839 547.375 478.186 549.364V567.802V570.274H476.945V570.275H462.879V567.803V549.363C461.226 547.374 458.338 546.793 456.673 546.793V543.908L455.019 538.966L448.4 540.202L445.09 538.966V542.674C444.125 542.262 442.277 541.191 442.608 540.202C442.939 539.214 439.988 542.262 438.471 543.91H428.542L426.06 548.441C424.681 547.068 421.758 544.569 421.096 545.558C420.268 546.793 409.926 550.501 406.203 550.089C403.788 549.822 398.242 547.303 394.416 545.564C392.342 544.622 390.773 543.91 390.482 543.91C389.655 543.91 395.86 522.9 416.545 524.548L414.477 520.429C411.581 520.841 405.21 521.417 402.893 520.429H393.792C392.513 520.429 393.767 518.398 395.454 515.668C398.131 511.335 401.896 505.242 398.342 502.715C395.309 502.303 391.972 499.419 402.893 491.18L426.06 488.296C423.965 487.123 420.477 484.24 422.398 481.695C420.755 482.628 412.98 484.15 390.482 485.001C389.241 484.314 388.083 482.447 393.378 480.469L390.482 479.233L394.619 469.347L398.756 468.523C400.825 465.227 407.444 459.048 417.373 460.696L419.027 452.869C415.028 453.28 403.224 453.116 388 449.161L412.822 436.802L391.723 430.623C399.997 427.739 417.373 422.137 420.682 422.796V419.5L423.578 419.912C423.992 418.814 424.405 416.534 422.751 416.205C422.362 416.128 421.712 416.021 420.884 415.886C417.301 415.3 410.391 414.171 407.03 412.497L410.34 407.966L413.649 410.026V405.906L416.131 407.966L414.89 403.434C415.166 402.61 417.124 401.21 422.751 402.198L416.131 396.431C416.131 397.804 413.98 399.232 405.375 393.959C406.754 391.076 412.325 385.638 423.578 386.956L424.405 383.661L413.649 382.837L429.72 375.422H434.334C434.472 373.911 434.334 370.89 432.679 370.89H427.301C423.854 368.281 416.545 363.063 414.89 363.063C414.217 363.063 414.377 362.845 414.885 362.151C415.936 360.716 418.479 357.246 418.2 349.469C418.476 347.821 423.164 344.443 439.712 344.113L440.953 339.994L434.334 341.642L422.751 332.579C424.405 332.167 428.708 330.601 432.679 327.635C432.499 326.537 431.654 324.257 429.72 323.928C427.301 323.516 428.129 312.393 439.712 313.629V309.509H442.608V305.39H445.918L444.263 302.094L448.814 303.33V298.799L469.912 274.493C469.957 274.61 470.001 274.728 470.046 274.848C470.137 274.584 470.23 274.329 470.325 274.081L492.251 298.798V303.33L496.802 302.094L495.147 305.389H498.457V309.509H501.353V313.628C512.936 312.393 513.764 323.515 511.345 323.927C509.41 324.257 508.566 326.536 508.385 327.635C512.357 330.601 516.659 332.166 518.314 332.578L506.731 341.641L500.111 339.993L501.353 344.113C517.9 344.442 522.589 347.82 522.865 349.468C522.586 357.246 525.128 360.716 526.18 362.151C526.688 362.844 526.848 363.063 526.174 363.063C524.52 363.063 517.211 368.281 513.764 370.89H508.385C506.731 370.89 506.593 373.911 506.731 375.421H511.345L527.416 382.836L516.659 383.66L517.487 386.956C528.739 385.638 534.311 391.075 535.69 393.959C527.085 399.232 524.933 397.804 524.933 396.431L518.314 402.198C523.94 401.209 525.899 402.61 526.174 403.434L524.933 407.965L527.416 405.906V410.025L530.725 407.965L534.035 412.497C530.674 414.17 523.764 415.3 520.181 415.885C519.353 416.021 518.702 416.127 518.314 416.204C516.659 416.534 517.073 418.813 517.487 419.912L520.383 419.5V422.796C523.692 422.136 541.068 427.739 549.342 430.623L528.243 436.802L553.065 449.16C537.841 453.115 526.037 453.28 522.037 452.868L523.692 460.695C533.621 459.047 540.24 465.227 542.309 468.522L546.446 469.346L550.583 479.233L547.687 480.469C552.982 482.446 551.824 484.314 550.583 485C528.084 484.149 520.31 482.628 518.667 481.695C520.588 484.24 517.1 487.122 515.005 488.296L538.172 491.179C549.093 499.419 545.756 502.302 542.722 502.714C539.169 505.241 542.934 511.334 545.611 515.667C547.297 518.397 548.552 520.428 547.273 520.428H538.172C535.855 521.417 529.484 520.84 526.588 520.428L524.52 524.548C545.205 522.9 551.41 543.909 550.583 543.909C550.292 543.909 548.723 544.622 546.649 545.564C542.823 547.302 537.277 549.821 534.862 550.089C531.139 550.5 520.796 546.793 519.969 545.557C519.307 544.568 516.384 547.068 515.005 548.441L512.522 543.909H502.594C501.077 542.262 498.126 539.213 498.457 540.202C498.788 541.19 496.94 542.261 495.975 542.673V538.966L492.665 540.202L486.046 538.966L484.392 543.907Z" fill="url(#paint8_linear)"/>
<path fill-rule="evenodd" clip-rule="evenodd" d="M892.392 606.81V609.678C890.727 609.678 887.839 610.255 886.186 612.231V630.544V632.999H884.945V633H870.879V630.545V612.229C869.226 610.254 866.338 609.676 864.673 609.676V606.812L863.019 601.904L856.4 603.131L853.09 601.904V605.586C852.125 605.177 850.277 604.113 850.608 603.131C850.939 602.149 847.988 605.177 846.471 606.814H836.542L834.06 611.314C832.681 609.951 829.758 607.468 829.096 608.45C828.268 609.678 817.926 613.36 814.203 612.951C811.788 612.686 806.242 610.184 802.416 608.457C800.342 607.521 798.773 606.814 798.482 606.814C797.655 606.814 803.86 585.946 824.545 587.583L822.477 583.491C819.581 583.9 813.21 584.473 810.893 583.491H801.792C800.513 583.491 801.767 581.474 803.454 578.762C806.131 574.459 809.896 568.407 806.342 565.897C803.309 565.488 799.972 562.623 810.893 554.44L834.06 551.576C831.965 550.41 828.477 547.547 830.398 545.019C828.755 545.946 820.98 547.457 798.482 548.302C797.241 547.621 796.083 545.766 801.378 543.802L798.482 542.574L802.619 532.754L806.756 531.936C808.825 528.662 815.444 522.525 825.373 524.162L827.027 516.387C823.028 516.797 811.224 516.633 796 512.705L820.822 500.43L799.723 494.292C807.997 491.428 825.373 485.863 828.682 486.518V483.245L831.578 483.654C831.992 482.563 832.405 480.299 830.751 479.971C830.362 479.895 829.712 479.789 828.884 479.654C825.3 479.073 818.391 477.951 815.03 476.289L818.34 471.788L821.649 473.834V469.742L824.131 471.788L822.89 467.287C823.166 466.469 825.124 465.078 830.751 466.06L824.131 460.331C824.131 461.695 821.98 463.114 813.375 457.876C814.754 455.012 820.325 449.611 831.578 450.92L832.405 447.647L821.649 446.829L837.72 439.464H842.334C842.472 437.963 842.334 434.963 840.679 434.963H835.301C831.854 432.371 824.545 427.189 822.89 427.189C822.217 427.189 822.377 426.971 822.885 426.283C823.936 424.858 826.479 421.411 826.2 413.686C826.476 412.049 831.164 408.694 847.712 408.367L848.953 404.275L842.334 405.912L830.751 396.91C832.405 396.501 836.708 394.946 840.679 392C840.499 390.909 839.654 388.645 837.72 388.317C835.301 387.908 836.129 376.861 847.712 378.088V373.997H850.608V369.905H853.918L852.263 366.632L856.814 367.859V363.358L877.912 339.217C877.957 339.333 878.001 339.45 878.045 339.569C878.137 339.307 878.23 339.053 878.325 338.807L900.251 363.357V367.858L904.802 366.63L903.147 369.903H906.457V373.995H909.353V378.087C920.936 376.859 921.764 387.907 919.345 388.316C917.41 388.643 916.566 390.907 916.385 391.999C920.357 394.945 924.659 396.499 926.314 396.909L914.731 405.91L908.111 404.274L909.353 408.365C925.901 408.693 930.589 412.048 930.865 413.685C930.586 421.41 933.128 424.856 934.18 426.282C934.688 426.97 934.848 427.187 934.174 427.187C932.52 427.187 925.211 432.37 921.764 434.961H916.385C914.731 434.961 914.593 437.962 914.731 439.462H919.345L935.416 446.827L924.659 447.646L925.487 450.919C936.739 449.61 942.311 455.011 943.69 457.875C935.085 463.112 932.933 461.694 932.933 460.33L926.314 466.058C931.94 465.076 933.899 466.467 934.174 467.286L932.933 471.786L935.416 469.741V473.832L938.725 471.786L942.035 476.287C938.674 477.949 931.764 479.071 928.181 479.653C927.353 479.787 926.702 479.893 926.314 479.97C924.659 480.297 925.073 482.561 925.487 483.652L928.383 483.243V486.517C931.692 485.862 949.068 491.427 957.342 494.291L936.243 500.428L961.065 512.703C945.841 516.631 934.037 516.795 930.037 516.386L931.692 524.16C941.621 522.523 948.24 528.661 950.309 531.934L954.446 532.753L958.583 542.573L955.687 543.8C960.982 545.764 959.824 547.619 958.583 548.301C936.084 547.456 928.31 545.945 926.667 545.018C928.588 547.546 925.1 550.409 923.005 551.574L946.172 554.439C957.093 562.622 953.756 565.486 950.722 565.895C947.169 568.405 950.934 574.457 953.611 578.761C955.297 581.472 956.552 583.49 955.273 583.49H946.172C943.855 584.472 937.484 583.899 934.588 583.49L932.52 587.581C953.205 585.945 959.41 606.812 958.583 606.812C958.292 606.812 956.723 607.52 954.649 608.456C950.823 610.182 945.277 612.684 942.862 612.95C939.139 613.359 928.796 609.676 927.969 608.449C927.307 607.467 924.384 609.949 923.005 611.313L920.522 606.812H910.594C909.077 605.176 906.126 602.148 906.457 603.13C906.788 604.112 904.94 605.176 903.975 605.585V601.902L900.665 603.13L894.046 601.902L892.392 606.81Z" fill="url(#paint9_linear)"/>
<path fill-rule="evenodd" clip-rule="evenodd" d="M1094.39 543.907V546.793C1092.73 546.793 1089.84 547.375 1088.19 549.364V567.802V570.274H1086.95V570.275H1072.88V567.803V549.363C1071.23 547.375 1068.34 546.793 1066.67 546.793V543.908L1065.02 538.966L1058.4 540.202L1055.09 538.966V542.674C1054.13 542.262 1052.28 541.191 1052.61 540.202C1052.94 539.214 1049.99 542.262 1048.47 543.91H1038.54L1036.06 548.441C1034.68 547.068 1031.76 544.569 1031.1 545.558C1030.27 546.793 1019.93 550.501 1016.2 550.089C1013.79 549.822 1008.24 547.303 1004.42 545.564C1002.34 544.622 1000.77 543.91 1000.48 543.91C999.655 543.91 1005.86 522.9 1026.55 524.548L1024.48 520.429C1021.58 520.841 1015.21 521.417 1012.89 520.429H1003.79C1002.51 520.429 1003.77 518.398 1005.45 515.668C1008.13 511.335 1011.9 505.242 1008.34 502.715C1005.31 502.303 1001.97 499.419 1012.89 491.18L1036.06 488.296C1033.96 487.123 1030.48 484.24 1032.4 481.695C1030.75 482.628 1022.98 484.15 1000.48 485.001C999.241 484.314 998.083 482.447 1003.38 480.469L1000.48 479.233L1004.62 469.347L1008.76 468.523C1010.82 465.227 1017.44 459.048 1027.37 460.696L1029.03 452.869C1025.03 453.28 1013.22 453.116 998 449.161L1022.82 436.802L1001.72 430.623C1010 427.739 1027.37 422.137 1030.68 422.796V419.5L1033.58 419.912C1033.99 418.814 1034.41 416.534 1032.75 416.205C1032.36 416.128 1031.71 416.021 1030.88 415.886C1027.3 415.3 1020.39 414.171 1017.03 412.497L1020.34 407.966L1023.65 410.026V405.906L1026.13 407.966L1024.89 403.434C1025.17 402.61 1027.12 401.21 1032.75 402.198L1026.13 396.431C1026.13 397.804 1023.98 399.232 1015.38 393.959C1016.75 391.076 1022.33 385.638 1033.58 386.956L1034.41 383.661L1023.65 382.837L1039.72 375.422H1044.33C1044.47 373.911 1044.33 370.89 1042.68 370.89H1037.3C1033.85 368.281 1026.55 363.063 1024.89 363.063C1024.22 363.063 1024.38 362.845 1024.88 362.151C1025.94 360.716 1028.48 357.246 1028.2 349.469C1028.48 347.821 1033.16 344.443 1049.71 344.113L1050.95 339.994L1044.33 341.642L1032.75 332.579C1034.41 332.167 1038.71 330.601 1042.68 327.635C1042.5 326.537 1041.65 324.257 1039.72 323.928C1037.3 323.516 1038.13 312.393 1049.71 313.629V309.509H1052.61V305.39H1055.92L1054.26 302.094L1058.81 303.33V298.799L1079.91 274.493C1079.96 274.61 1080 274.728 1080.05 274.848C1080.14 274.584 1080.23 274.329 1080.33 274.081L1102.25 298.798V303.33L1106.8 302.094L1105.15 305.389H1108.46V309.509H1111.35V313.628C1122.94 312.393 1123.76 323.515 1121.35 323.927C1119.41 324.257 1118.57 326.536 1118.39 327.635C1122.36 330.601 1126.66 332.166 1128.31 332.578L1116.73 341.641L1110.11 339.993L1111.35 344.113C1127.9 344.442 1132.59 347.82 1132.86 349.468C1132.59 357.246 1135.13 360.716 1136.18 362.151C1136.69 362.844 1136.85 363.063 1136.17 363.063C1134.52 363.063 1127.21 368.281 1123.76 370.89H1118.39C1116.73 370.89 1116.59 373.911 1116.73 375.421H1121.35L1137.42 382.836L1126.66 383.66L1127.49 386.956C1138.74 385.638 1144.31 391.075 1145.69 393.959C1137.08 399.232 1134.93 397.804 1134.93 396.431L1128.31 402.198C1133.94 401.209 1135.9 402.61 1136.17 403.434L1134.93 407.965L1137.42 405.906V410.025L1140.73 407.965L1144.03 412.497C1140.67 414.17 1133.76 415.3 1130.18 415.885C1129.35 416.021 1128.7 416.127 1128.31 416.204C1126.66 416.534 1127.07 418.813 1127.49 419.912L1130.38 419.5V422.796C1133.69 422.136 1151.07 427.739 1159.34 430.623L1138.24 436.802L1163.06 449.16C1147.84 453.115 1136.04 453.28 1132.04 452.868L1133.69 460.695C1143.62 459.047 1150.24 465.227 1152.31 468.522L1156.45 469.346L1160.58 479.233L1157.69 480.469C1162.98 482.446 1161.82 484.314 1160.58 485C1138.08 484.149 1130.31 482.628 1128.67 481.695C1130.59 484.24 1127.1 487.122 1125 488.296L1148.17 491.179C1159.09 499.419 1155.76 502.302 1152.72 502.714C1149.17 505.241 1152.93 511.334 1155.61 515.667C1157.3 518.397 1158.55 520.428 1157.27 520.428H1148.17C1145.86 521.417 1139.48 520.84 1136.59 520.428L1134.52 524.548C1155.2 522.9 1161.41 543.909 1160.58 543.909C1160.29 543.909 1158.72 544.622 1156.65 545.564C1152.82 547.302 1147.28 549.821 1144.86 550.089C1141.14 550.5 1130.8 546.793 1129.97 545.557C1129.31 544.568 1126.38 547.068 1125 548.441L1122.52 543.909H1112.59C1111.08 542.262 1108.13 539.213 1108.46 540.202C1108.79 541.19 1106.94 542.261 1105.97 542.673V538.966L1102.66 540.202L1096.05 538.966L1094.39 543.907Z" fill="url(#paint10_linear)"/>
<path fill-rule="evenodd" clip-rule="evenodd" d="M1296.39 533.949V536.836C1294.73 536.836 1291.84 537.417 1290.19 539.406V557.844V560.316H1288.95V560.317H1274.88V557.845V539.405C1273.23 537.417 1270.34 536.835 1268.67 536.835V533.95L1267.02 529.009L1260.4 530.244L1257.09 529.009V532.716C1256.13 532.304 1254.28 531.233 1254.61 530.244C1254.94 529.256 1251.99 532.304 1250.47 533.952H1240.54L1238.06 538.483C1236.68 537.11 1233.76 534.611 1233.1 535.6C1232.27 536.836 1221.93 540.543 1218.2 540.131C1215.79 539.864 1210.24 537.345 1206.42 535.607C1204.34 534.665 1202.77 533.952 1202.48 533.952C1201.65 533.952 1207.86 512.942 1228.55 514.59L1226.48 510.471C1223.58 510.883 1217.21 511.459 1214.89 510.471H1205.79C1204.51 510.471 1205.77 508.44 1207.45 505.71C1210.13 501.377 1213.9 495.284 1210.34 492.757C1207.31 492.345 1203.97 489.461 1214.89 481.222L1238.06 478.339C1235.96 477.165 1232.48 474.283 1234.4 471.737C1232.75 472.67 1224.98 474.192 1202.48 475.043C1201.24 474.356 1200.08 472.489 1205.38 470.511L1202.48 469.276L1206.62 459.389L1210.76 458.565C1212.82 455.269 1219.44 449.09 1229.37 450.738L1231.03 442.911C1227.03 443.323 1215.22 443.158 1200 439.203L1224.82 426.845L1203.72 420.665C1212 417.782 1229.37 412.179 1232.68 412.838V409.543L1235.58 409.955C1235.99 408.856 1236.41 406.577 1234.75 406.247C1234.36 406.17 1233.71 406.063 1232.88 405.928C1229.3 405.342 1222.39 404.213 1219.03 402.539L1222.34 398.008L1225.65 400.068V395.948L1228.13 398.008L1226.89 393.477C1227.17 392.653 1229.12 391.252 1234.75 392.241L1228.13 386.473C1228.13 387.847 1225.98 389.275 1217.38 384.002C1218.75 381.118 1224.33 375.68 1235.58 376.998L1236.41 373.703L1225.65 372.879L1241.72 365.464H1246.33C1246.47 363.953 1246.33 360.932 1244.68 360.932H1239.3C1235.85 358.323 1228.55 353.105 1226.89 353.105C1226.22 353.105 1226.38 352.887 1226.88 352.194C1227.94 350.758 1230.48 347.289 1230.2 339.511C1230.48 337.863 1235.16 334.485 1251.71 334.156L1252.95 330.036L1246.33 331.684L1234.75 322.621C1236.41 322.209 1240.71 320.644 1244.68 317.677C1244.5 316.579 1243.65 314.299 1241.72 313.97C1239.3 313.558 1240.13 302.435 1251.71 303.671V299.552H1254.61V295.432H1257.92L1256.26 292.136L1260.81 293.372V288.841L1281.91 264.536C1281.96 264.652 1282 264.77 1282.05 264.89C1282.14 264.627 1282.23 264.371 1282.33 264.123L1304.25 288.84V293.372L1308.8 292.136L1307.15 295.431H1310.46V299.551H1313.35V303.67C1324.94 302.435 1325.76 313.557 1323.35 313.969C1321.41 314.299 1320.57 316.578 1320.39 317.677C1324.36 320.643 1328.66 322.208 1330.31 322.62L1318.73 331.683L1312.11 330.035L1313.35 334.155C1329.9 334.484 1334.59 337.862 1334.86 339.51C1334.59 347.288 1337.13 350.758 1338.18 352.193C1338.69 352.886 1338.85 353.105 1338.17 353.105C1336.52 353.105 1329.21 358.323 1325.76 360.932H1320.39C1318.73 360.932 1318.59 363.953 1318.73 365.463H1323.35L1339.42 372.878L1328.66 373.702L1329.49 376.998C1340.74 375.68 1346.31 381.117 1347.69 384.001C1339.08 389.274 1336.93 387.846 1336.93 386.473L1330.31 392.24C1335.94 391.251 1337.9 392.652 1338.17 393.476L1336.93 398.007L1339.42 395.948V400.067L1342.73 398.007L1346.03 402.539C1342.67 404.212 1335.76 405.342 1332.18 405.927C1331.35 406.063 1330.7 406.169 1330.31 406.246C1328.66 406.576 1329.07 408.855 1329.49 409.954L1332.38 409.542V412.838C1335.69 412.178 1353.07 417.781 1361.34 420.665L1340.24 426.844L1365.06 439.202C1349.84 443.157 1338.04 443.322 1334.04 442.91L1335.69 450.737C1345.62 449.089 1352.24 455.269 1354.31 458.564L1358.45 459.388L1362.58 469.275L1359.69 470.511C1364.98 472.488 1363.82 474.356 1362.58 475.042C1340.08 474.191 1332.31 472.67 1330.67 471.737C1332.59 474.282 1329.1 477.164 1327 478.338L1350.17 481.221C1361.09 489.461 1357.76 492.344 1354.72 492.756C1351.17 495.283 1354.93 501.376 1357.61 505.709C1359.3 508.439 1360.55 510.47 1359.27 510.47H1350.17C1347.86 511.459 1341.48 510.882 1338.59 510.47L1336.52 514.59C1357.2 512.942 1363.41 533.951 1362.58 533.951C1362.29 533.951 1360.72 534.664 1358.65 535.606C1354.82 537.344 1349.28 539.863 1346.86 540.131C1343.14 540.542 1332.8 536.835 1331.97 535.599C1331.31 534.61 1328.38 537.11 1327 538.483L1324.52 533.951H1314.59C1313.08 532.303 1310.13 529.255 1310.46 530.244C1310.79 531.232 1308.94 532.303 1307.97 532.715V529.008L1304.66 530.244L1298.05 529.008L1296.39 533.949Z" fill="url(#paint11_linear)"/>
<path d="M1440 550.006L1357.82 524.599L1371.27 516.695C1363.55 516.131 1342.28 516.356 1318.98 521.776L1325.7 511.049C1318.48 510.485 1301.35 511.84 1290.59 521.776C1284.45 518.066 1273.28 509.269 1276.98 503.395C1277.04 503.311 1277.09 503.227 1277.15 503.145C1277.09 503.228 1277.03 503.311 1276.98 503.395C1272.83 509.512 1260.63 521.926 1243.53 524.599L1253.99 516.695L1210.66 524.599C1208.42 522.906 1206.03 518.953 1214.4 516.695C1222.76 514.437 1204.44 519.142 1194.23 521.776L1176.3 516.695V521.776C1166.59 519.894 1143.43 518.615 1128.49 528.551L1122.52 516.695L1118.78 524.599C1112.06 513.119 1097.72 489.934 1094.13 489.03C1089.65 487.901 1115.05 518.389 1082.93 550.006L1077.7 538.714L1070.97 544.925C1066.99 533.821 1054.69 512.63 1037.36 516.695C1047.57 522.906 1067.09 537.246 1063.5 544.925C1048.31 539.279 1015.1 528.664 1003.74 531.374L1010.47 544.925L1003.74 541.819C997.734 543.649 988.098 546.705 983.48 548.52C986.613 543.973 987.763 530.214 981.333 524.599C977.392 521.157 951.453 539.279 951.453 562.427L943.236 544.925L938.007 556.781L924.561 553.393L933.525 565.814C923.814 562.803 901.404 557.345 889.452 559.604L895.428 565.814C888.705 563.744 872.271 561.41 860.319 568.637V553.393C848.865 556.216 824.014 566.83 816.246 586.704L811.017 568.637L803.547 575.977V559.604C803.547 557.345 789.105 578.612 781.884 589.527L774.414 578.8C767.442 579.741 755.589 578.461 763.956 565.814C755.24 566.002 737.81 572.25 737.81 595.737L696.725 586.704L709.424 599.125L696.725 595.737L709.424 608.158C699.215 603.642 673.419 595.511 651.905 599.125C645.68 597.431 632.483 596.415 629.495 605.9C627.503 601.007 627.254 589.527 642.194 582.752C635.969 582.94 621.428 587.494 613.061 604.206L607.085 599.125H585.422L596.627 605.9C590.9 604.771 578.251 602.851 573.47 604.206L571.229 595.737L566 604.206V633H1440V550.006Z" fill="url(#paint12_linear)"/>
<path fill-rule="evenodd" clip-rule="evenodd" d="M664.392 598.675V601.561C662.727 601.561 659.839 602.143 658.186 604.132V622.57V625.042H656.945V625.042H642.879V622.571V604.131C641.226 602.142 638.338 601.561 636.673 601.561V598.676L635.019 593.734L628.4 594.97L625.09 593.734V597.442C624.125 597.03 622.277 595.959 622.608 594.97C622.939 593.981 619.988 597.03 618.471 598.678H608.542L606.06 603.209C604.681 601.836 601.758 599.337 601.096 600.325C600.268 601.561 589.926 605.269 586.203 604.857C583.788 604.59 578.242 602.07 574.416 600.332C572.342 599.39 570.773 598.678 570.482 598.678C569.655 598.678 575.86 577.668 596.545 579.316L594.477 575.196C591.581 575.608 585.21 576.185 582.893 575.196H573.792C572.513 575.196 573.767 573.165 575.454 570.435C578.131 566.103 581.896 560.01 578.342 557.482C575.309 557.07 571.972 554.187 582.893 545.948L606.06 543.064C603.965 541.891 600.477 539.008 602.398 536.463C600.755 537.396 592.98 538.918 570.482 539.768C569.241 539.082 568.083 537.214 573.378 535.237L570.482 534.001L574.619 524.114L578.756 523.29C580.825 519.995 587.444 513.816 597.373 515.463L599.027 507.636C595.028 508.048 583.224 507.883 568 503.929L592.822 491.57L571.723 485.391C579.997 482.507 597.373 476.905 600.682 477.564V474.268L603.578 474.68C603.992 473.582 604.405 471.302 602.751 470.973C602.362 470.895 601.712 470.789 600.884 470.654C597.301 470.068 590.391 468.938 587.03 467.265L590.34 462.734L593.649 464.793V460.674L596.131 462.734L594.89 458.202C595.166 457.378 597.124 455.978 602.751 456.966L596.131 451.199C596.131 452.572 593.98 454 585.375 448.727C586.754 445.844 592.325 440.406 603.578 441.724L604.405 438.428L593.649 437.604L609.72 430.189H614.334C614.472 428.679 614.334 425.658 612.679 425.658H607.301C603.854 423.049 596.545 417.831 594.89 417.831C594.217 417.831 594.377 417.612 594.885 416.919C595.936 415.484 598.479 412.014 598.2 404.236C598.476 402.589 603.164 399.211 619.712 398.881L620.953 394.762L614.334 396.409L602.751 387.346C604.405 386.934 608.708 385.369 612.679 382.403C612.499 381.304 611.654 379.025 609.72 378.695C607.301 378.283 608.129 367.161 619.712 368.397V364.277H622.608V360.158H625.918L624.263 356.862L628.814 358.098V353.566L649.912 329.261C649.957 329.378 650.001 329.496 650.046 329.616C650.137 329.352 650.23 329.096 650.325 328.849L672.251 353.566V358.097L676.802 356.861L675.147 360.157H678.457V364.276H681.353V368.396C692.936 367.16 693.764 378.283 691.345 378.695C689.41 379.024 688.566 381.304 688.385 382.402C692.357 385.368 696.659 386.934 698.314 387.346L686.731 396.409L680.111 394.761L681.353 398.88C697.9 399.21 702.589 402.588 702.865 404.236C702.586 412.014 705.128 415.483 706.18 416.918C706.688 417.612 706.848 417.83 706.174 417.83C704.52 417.83 697.211 423.048 693.764 425.657H688.385C686.731 425.657 686.593 428.678 686.731 430.189H691.345L707.416 437.604L696.659 438.428L697.487 441.723C708.739 440.405 714.311 445.843 715.69 448.727C707.085 453.999 704.933 452.571 704.933 451.198L698.314 456.966C703.94 455.977 705.899 457.378 706.174 458.201L704.933 462.733L707.416 460.673V464.793L710.725 462.733L714.035 467.264C710.674 468.938 703.764 470.067 700.181 470.653C699.353 470.788 698.702 470.895 698.314 470.972C696.659 471.301 697.073 473.581 697.487 474.679L700.383 474.268V477.563C703.692 476.904 721.068 482.507 729.342 485.39L708.243 491.57L733.065 503.928C717.841 507.883 706.037 508.048 702.037 507.636L703.692 515.463C713.621 513.815 720.24 519.994 722.309 523.29L726.446 524.114L730.583 534.001L727.687 535.236C732.982 537.214 731.824 539.081 730.583 539.768C708.084 538.917 700.31 537.395 698.667 536.462C700.588 539.007 697.1 541.89 695.005 543.063L718.172 545.947C729.093 554.186 725.756 557.07 722.722 557.482C719.169 560.009 722.934 566.102 725.611 570.435C727.297 573.165 728.552 575.196 727.273 575.196H718.172C715.855 576.184 709.484 575.608 706.588 575.196L704.52 579.315C725.205 577.667 731.41 598.677 730.583 598.677C730.292 598.677 728.723 599.389 726.649 600.332C722.823 602.07 717.277 604.589 714.862 604.856C711.139 605.268 700.796 601.561 699.969 600.325C699.307 599.336 696.384 601.835 695.005 603.208L692.522 598.677H682.594C681.077 597.029 678.126 593.981 678.457 594.969C678.788 595.958 676.94 597.029 675.975 597.441V593.733L672.665 594.969L666.046 593.733L664.392 598.675Z" fill="url(#paint13_linear)"/>
<path d="M0 489.881L38.8889 502.769L26.3889 493.273C33.5648 492.594 53.3333 492.866 75 499.377L68.75 486.49C75.463 485.811 91.3889 487.439 101.389 499.377C107.094 494.919 117.48 484.351 114.045 477.294C113.991 477.193 113.939 477.092 113.889 476.994C113.944 477.093 113.996 477.193 114.045 477.294C117.905 484.643 129.247 499.557 145.139 502.769L135.417 493.273L175.694 502.769C177.778 500.734 180 495.986 172.222 493.273C164.444 490.559 181.481 496.212 190.972 499.377L207.639 493.273V499.377C216.667 497.116 238.194 495.579 252.083 507.517L257.639 493.273L261.111 502.769C267.361 488.977 280.694 461.122 284.028 460.037C288.194 458.68 264.583 495.308 294.444 533.292L299.306 519.726L305.556 527.187C309.259 513.847 320.694 488.389 336.806 493.273C327.315 500.734 309.167 517.962 312.5 527.187C326.62 520.404 357.5 507.652 368.056 510.908L361.806 527.187L368.056 523.457C373.642 525.654 382.6 529.326 386.893 531.507C383.98 526.044 382.912 509.515 388.889 502.769C392.553 498.633 416.667 520.404 416.667 548.214L424.306 527.187L429.167 541.431L441.667 537.361L433.333 552.284C442.361 548.666 463.194 542.109 474.306 544.823L468.75 552.284C475 549.797 490.278 546.993 501.389 555.675V537.361C512.037 540.753 535.139 553.505 542.361 577.38L547.222 555.675L554.167 564.493V544.823C554.167 542.109 567.593 567.658 574.306 580.772L581.25 567.884C587.732 569.015 598.75 567.477 590.972 552.284C599.074 552.51 615.278 560.016 615.278 588.233L653.472 577.38L641.667 592.303L653.472 588.233L641.667 603.155C651.157 597.729 675.139 587.962 695.139 592.303C700.926 590.268 713.194 589.047 715.972 600.442C717.824 594.564 718.056 580.772 704.167 572.632C709.954 572.858 723.472 578.33 731.25 598.407L736.806 592.303H756.944L746.528 600.442C751.852 599.086 763.611 596.779 768.056 598.407L770.139 588.233L775 598.407V633H0V489.881Z" fill="url(#paint14_linear)"/>
<defs>
<linearGradient id="paint0_linear" x1="951.983" y1="307.938" x2="951.983" y2="446.568" gradientUnits="userSpaceOnUse">
<stop stop-color="#FF926D"/>
<stop offset="1" stop-color="#FFBE8D"/>
</linearGradient>
<linearGradient id="paint1_linear" x1="720" y1="468" x2="720" y2="115.857" gradientUnits="userSpaceOnUse">
<stop stop-color="#FFBDA5"/>
<stop offset="1" stop-color="#FAC5B2" stop-opacity="0"/>
</linearGradient>
<linearGradient id="paint2_linear" x1="401.758" y1="412.686" x2="401.32" y2="489.352" gradientUnits="userSpaceOnUse">
<stop stop-color="#F55B46"/>
<stop offset="0.68421" stop-color="#FF936A"/>
</linearGradient>
<linearGradient id="paint3_linear" x1="651.147" y1="489" x2="1437.59" y2="551.764" gradientUnits="userSpaceOnUse">
<stop stop-color="#BEB178"/>
<stop offset="1" stop-color="#FFD398"/>
</linearGradient>
<linearGradient id="paint4_linear" x1="617.234" y1="572.814" x2="1429.74" y2="642.533" gradientUnits="userSpaceOnUse">
<stop stop-color="#BEB178"/>
<stop offset="1" stop-color="#FFD398"/>
</linearGradient>
<linearGradient id="paint5_linear" x1="820.328" y1="584.862" x2="1388.35" y2="527.692" gradientUnits="userSpaceOnUse">
<stop offset="0.61941" stop-color="#657C56"/>
<stop offset="0.964417" stop-color="#9EA26D"/>
</linearGradient>
<linearGradient id="paint6_linear" x1="82.5" y1="0" x2="82.5" y2="502.783" gradientUnits="userSpaceOnUse">
<stop stop-color="#1D1017"/>
<stop offset="1" stop-color="#4F1A33"/>
</linearGradient>
<linearGradient id="paint7_linear" x1="234.196" y1="222.781" x2="234.196" y2="516.503" gradientUnits="userSpaceOnUse">
<stop stop-color="#1D1017"/>
<stop offset="1" stop-color="#4F1A33"/>
</linearGradient>
<linearGradient id="paint8_linear" x1="436.196" y1="276.553" x2="436.196" y2="570.275" gradientUnits="userSpaceOnUse">
<stop stop-color="#1D1017"/>
<stop offset="1" stop-color="#4F1A33"/>
</linearGradient>
<linearGradient id="paint9_linear" x1="844.196" y1="341.262" x2="844.196" y2="633" gradientUnits="userSpaceOnUse">
<stop stop-color="#1D1017"/>
<stop offset="1" stop-color="#4F1A33"/>
</linearGradient>
<linearGradient id="paint10_linear" x1="1046.2" y1="276.553" x2="1046.2" y2="570.275" gradientUnits="userSpaceOnUse">
<stop stop-color="#1D1017"/>
<stop offset="1" stop-color="#4F1A33"/>
</linearGradient>
<linearGradient id="paint11_linear" x1="1248.2" y1="266.595" x2="1248.2" y2="560.317" gradientUnits="userSpaceOnUse">
<stop stop-color="#1D1017"/>
<stop offset="1" stop-color="#4F1A33"/>
</linearGradient>
<linearGradient id="paint12_linear" x1="1112.06" y1="508.761" x2="1111.21" y2="633.539" gradientUnits="userSpaceOnUse">
<stop stop-color="#B53635"/>
<stop offset="0.68421" stop-color="#2B131E"/>
</linearGradient>
<linearGradient id="paint13_linear" x1="616.196" y1="331.32" x2="616.196" y2="625.042" gradientUnits="userSpaceOnUse">
<stop stop-color="#1D1017"/>
<stop offset="1" stop-color="#4F1A33"/>
</linearGradient>
<linearGradient id="paint14_linear" x1="267.361" y1="483.74" x2="268.686" y2="633.642" gradientUnits="userSpaceOnUse">
<stop stop-color="#B53635"/>
<stop offset="0.68421" stop-color="#2B131E"/>
</linearGradient>
</defs>
</svg>
