<svg width="257" height="257" viewBox="0 0 257 257" fill="none" xmlns="http://www.w3.org/2000/svg">
    <path d="M128.627 85.9274C105.123 85.9274 85.9427 105.108 85.9427 128.611C85.9427 152.115 105.123 171.295 128.627 171.295C152.13 171.295 171.311 152.115 171.311 128.611C171.311 105.108 152.13 85.9274 128.627 85.9274ZM256.647 128.611C256.647 110.936 256.807 93.4203 255.814 75.7767C254.822 55.2832 250.147 37.0953 235.161 22.1094C220.143 7.09154 201.987 2.44849 181.494 1.45584C163.818 0.463188 146.302 0.623294 128.659 0.623294C110.983 0.623294 93.4677 0.463188 75.8241 1.45584C55.3306 2.44849 37.1427 7.12356 22.1568 22.1094C7.13897 37.1273 2.49592 55.2832 1.50326 75.7767C0.510613 93.4523 0.670718 110.968 0.670718 128.611C0.670718 146.255 0.510613 163.803 1.50326 181.446C2.49592 201.94 7.17099 220.128 22.1568 235.113C37.1747 250.131 55.3306 254.774 75.8241 255.767C93.4997 256.76 111.015 256.6 128.659 256.6C146.334 256.6 163.85 256.76 181.494 255.767C201.987 254.774 220.175 250.099 235.161 235.113C250.179 220.096 254.822 201.94 255.814 181.446C256.839 163.803 256.647 146.287 256.647 128.611V128.611ZM128.627 194.287C92.2829 194.287 62.9516 164.955 62.9516 128.611C62.9516 92.2675 92.2829 62.9362 128.627 62.9362C164.971 62.9362 194.302 92.2675 194.302 128.611C194.302 164.955 164.971 194.287 128.627 194.287ZM196.992 75.5846C188.506 75.5846 181.654 68.732 181.654 60.2465C181.654 51.7609 188.506 44.9084 196.992 44.9084C205.477 44.9084 212.33 51.7609 212.33 60.2465C212.332 62.2614 211.937 64.257 211.167 66.1191C210.397 67.9811 209.268 69.673 207.843 71.0978C206.418 72.5225 204.726 73.6523 202.864 74.4222C201.002 75.1921 199.007 75.5871 196.992 75.5846V75.5846Z" fill="#282525"/>
</svg>
