<svg width="269" height="343" viewBox="0 0 269 343" fill="none" xmlns="http://www.w3.org/2000/svg">
    <path d="M265.408 86.018C267.701 88.3148 269 91.4156 269 94.6695V330.75C269 337.526 263.536 343 256.773 343H12.2273C5.46406 343 0 337.526 0 330.75V12.25C0 5.47422 5.46406 0 12.2273 0H174.506C177.754 0 180.887 1.30156 183.18 3.59844L265.408 86.018V86.018ZM240.801 100.297L168.889 28.2516V100.297H240.801ZM180.818 219.451C175.018 219.26 168.851 219.708 161.847 220.584C152.562 214.846 146.311 206.964 141.871 195.384L142.28 193.707L142.753 191.724C144.396 184.784 145.279 179.719 145.543 174.612C145.741 170.757 145.527 167.201 144.844 163.905C143.583 156.789 138.558 152.627 132.226 152.371C126.323 152.13 120.897 155.433 119.51 160.552C117.252 168.828 118.574 179.719 123.362 198.293C117.263 212.859 109.205 229.936 103.798 239.461C96.5802 243.189 90.9594 246.581 86.2367 250.34C80.0084 255.305 76.1186 260.408 75.0487 265.768C74.5291 268.252 75.3124 271.498 77.0968 274.159C79.1219 277.175 82.1711 279.135 85.8278 279.419C95.0556 280.135 106.396 270.603 118.918 249.077C120.175 248.656 121.505 248.212 123.129 247.661L127.676 246.122C130.553 245.149 132.639 244.453 134.703 243.783C143.644 240.866 150.407 239.024 156.559 237.975C167.25 243.71 179.607 247.469 187.929 247.469C194.8 247.469 199.442 243.901 201.12 238.285C202.591 233.355 201.425 227.636 198.261 224.474C194.991 221.254 188.976 219.715 180.818 219.451V219.451ZM86.0609 268.612V268.474L86.1106 268.344C86.6697 266.896 87.3873 265.514 88.2503 264.225C89.8857 261.706 92.1363 259.057 94.9257 256.236C96.4235 254.723 97.9825 253.25 99.8128 251.596C100.222 251.228 102.835 248.897 103.324 248.438L107.592 244.456L104.49 249.406C99.7822 256.925 95.5256 262.338 91.8803 265.867C90.5391 267.169 89.3584 268.126 88.4032 268.742C88.0878 268.953 87.754 269.135 87.4059 269.286C87.2492 269.351 87.1117 269.389 86.9741 269.4C86.8289 269.419 86.6814 269.399 86.5462 269.343C86.4023 269.283 86.2795 269.181 86.1932 269.051C86.1069 268.921 86.0608 268.768 86.0609 268.612V268.612ZM134.183 185.052L133.319 186.583L132.784 184.906C131.6 181.143 130.729 175.474 130.488 170.359C130.213 164.54 130.675 161.049 132.509 161.049C135.085 161.049 136.265 165.184 136.357 171.404C136.441 176.871 135.581 182.559 134.179 185.052H134.183ZM131.963 207.431L132.547 205.88L133.346 207.335C137.813 215.466 143.609 222.249 149.983 226.977L151.358 227.995L149.681 228.34C143.441 229.634 137.629 231.579 129.682 234.79C130.511 234.454 121.421 238.182 119.12 239.066L117.114 239.836L118.184 237.968C122.903 229.737 127.263 219.853 131.959 207.431H131.963ZM192.19 236.624C189.186 237.811 182.721 236.75 171.338 231.881L168.45 230.648L171.583 230.419C180.486 229.756 186.791 230.246 190.467 231.594C192.033 232.168 193.076 232.892 193.539 233.719C193.782 234.11 193.864 234.581 193.767 235.032C193.67 235.482 193.402 235.878 193.019 236.134C192.776 236.348 192.495 236.515 192.19 236.624V236.624Z" fill="#3C3036"/>
</svg>
