<svg width="256" height="256" viewBox="0 0 256 256" fill="none" xmlns="http://www.w3.org/2000/svg">
    <path d="M128 0C57.307 0 0 57.307 0 128C0 198.693 57.307 256 128 256C198.693 256 256 198.693 256 128C256 57.307 198.693 0 128 0Z" fill="#40B3E0"/>
    <path d="M190.283 73.6299L167.42 188.899C167.42 188.899 164.223 196.893 155.43 193.056L102.672 152.608L83.488 143.336L51.194 132.464C51.194 132.464 46.238 130.706 45.758 126.869C45.278 123.032 51.354 120.954 51.354 120.954L179.73 70.5939C179.73 70.5939 190.282 65.9579 190.282 73.6319" fill="white"/>
    <path d="M98.618 187.603C98.618 187.603 97.078 187.459 95.158 181.383C93.241 175.308 83.488 143.334 83.488 143.334L161.026 94.0942C161.026 94.0942 165.503 91.3762 165.343 94.0942C165.343 94.0942 166.142 94.5742 163.743 96.8122C161.346 99.0512 102.833 151.648 102.833 151.648" fill="#D2E5F1"/>
    <path d="M122.901 168.115L102.034 187.141C102.034 187.141 100.402 188.379 98.618 187.603L102.614 152.263" fill="#B5CFE4"/>
</svg>
