<svg width="261" height="298" viewBox="0 0 261 298" fill="none" xmlns="http://www.w3.org/2000/svg">
    <path d="M106.632 112.048C61.6937 109.88 30.4473 125.9 12.9084 160.123C-13.3923 211.442 8.35196 295.428 96.1075 295.428C183.871 295.428 186.405 210.626 186.405 201.734V102.401C205.18 114.284 221.002 121.443 233.885 123.87C246.768 126.29 254.95 127.366 258.453 127.091V77.6645C246.539 76.2296 236.236 73.4896 227.542 69.4522C214.499 63.3922 188.648 46.5783 188.648 21.9338C188.664 22.0559 188.664 15.6983 188.648 2.86084H134.322C134.162 123.572 134.162 189.866 134.322 201.742C134.566 219.556 120.744 244.482 92.7264 244.482C64.7008 244.482 50.8865 219.578 50.8865 203.52C50.8865 193.69 54.2599 179.44 68.2193 168.885C76.5003 162.627 87.9868 160.131 106.632 160.131V112.048V112.048Z" fill="#2F88FF" stroke="black" stroke-width="3.833" stroke-linejoin="round"/>
</svg>
